{
	"asset":{
		"generator":"Khronos glTF Blender I/O v4.0.44",
		"version":"2.0"
	},
	"scene":0,
	"scenes":[
		{
			"name":"Scene",
			"nodes":[
				0,
				1,
				2,
				3,
				4,
				5
			]
		}
	],
	"nodes":[
		{
			"mesh":0,
			"name":"Cube-col",
			"scale":[
				0.3408632278442383,
				0.3408632278442383,
				0.3408632278442383
			]
		},
		{
			"mesh":1,
			"name":"Cylinder",
			"scale":[
				-0.03277111053466797,
				-0.022771110758185387,
				-0.03277111053466797
			],
			"translation":[
				0,
				0.41276606917381287,
				0
			]
		},
		{
			"mesh":2,
			"name":"Cylinder.001",
			"scale":[
				0.4000000059604645,
				0.019999999552965164,
				0.4000000059604645
			],
			"translation":[
				0,
				0.44107669591903687,
				0
			]
		},
		{
			"mesh":3,
			"name":"Cylinder.003",
			"scale":[
				-0.03693445771932602,
				-0.03693445771932602,
				-0.03693445771932602
			],
			"translation":[
				-0.31619909405708313,
				0.5533621311187744,
				0
			]
		},
		{
			"mesh":4,
			"name":"Cylinder.004",
			"scale":[
				0.013848060742020607,
				0.013848060742020607,
				0.013848060742020607
			],
			"translation":[
				-0.31384676694869995,
				0.5119571089744568,
				0
			]
		},
		{
			"mesh":5,
			"name":"Cylinder.002-col",
			"rotation":[
				0,
				0,
				-0.7071068286895752,
				0.7071067690849304
			],
			"scale":[
				-0.05494248867034912,
				-0.05494248867034912,
				-0.05494248867034912
			],
			"translation":[
				-0.4016537368297577,
				0.14943471550941467,
				0
			]
		}
	],
	"materials":[
		{
			"doubleSided":true,
			"name":"Material.001",
			"pbrMetallicRoughness":{
				"baseColorFactor":[
					0.0656079351902008,
					0.017240513116121292,
					0,
					1
				],
				"metallicFactor":0,
				"roughnessFactor":0.5
			}
		},
		{
			"doubleSided":true,
			"name":"Material.002",
			"pbrMetallicRoughness":{
				"baseColorFactor":[
					0.11236758530139923,
					0.11236758530139923,
					0.11236758530139923,
					1
				],
				"metallicFactor":0.4173228442668915,
				"roughnessFactor":0.5
			}
		},
		{
			"doubleSided":true,
			"name":"Material.003",
			"pbrMetallicRoughness":{
				"baseColorFactor":[
					0,
					0,
					0,
					1
				],
				"metallicFactor":0,
				"roughnessFactor":0.5
			}
		},
		{
			"doubleSided":true,
			"name":"Material.005",
			"pbrMetallicRoughness":{
				"baseColorFactor":[
					0.68065345287323,
					1,
					0,
					1
				],
				"roughnessFactor":0.5
			}
		},
		{
			"doubleSided":true,
			"name":"Material.006",
			"pbrMetallicRoughness":{
				"baseColorFactor":[
					0.10377001762390137,
					0.14829394221305847,
					0.26445695757865906,
					1
				],
				"metallicFactor":0,
				"roughnessFactor":0.5
			}
		},
		{
			"doubleSided":true,
			"name":"Material.007",
			"pbrMetallicRoughness":{
				"baseColorFactor":[
					0.8370661735534668,
					1,
					0.26079490780830383,
					1
				],
				"roughnessFactor":0.5
			}
		}
	],
	"meshes":[
		{
			"name":"Cube.001",
			"primitives":[
				{
					"attributes":{
						"POSITION":0,
						"NORMAL":1,
						"TEXCOORD_0":2
					},
					"indices":3,
					"material":0
				}
			]
		},
		{
			"name":"Cylinder",
			"primitives":[
				{
					"attributes":{
						"POSITION":4,
						"NORMAL":5,
						"TEXCOORD_0":6
					},
					"indices":7,
					"material":1
				}
			]
		},
		{
			"name":"Cylinder.002",
			"primitives":[
				{
					"attributes":{
						"POSITION":8,
						"NORMAL":9,
						"TEXCOORD_0":10
					},
					"indices":11,
					"material":2
				}
			]
		},
		{
			"name":"Cylinder.004",
			"primitives":[
				{
					"attributes":{
						"POSITION":12,
						"NORMAL":13,
						"TEXCOORD_0":14
					},
					"indices":15,
					"material":3
				}
			]
		},
		{
			"name":"Cylinder.005",
			"primitives":[
				{
					"attributes":{
						"POSITION":16,
						"NORMAL":17,
						"TEXCOORD_0":18
					},
					"indices":19,
					"material":4
				}
			]
		},
		{
			"name":"Cylinder.006",
			"primitives":[
				{
					"attributes":{
						"POSITION":20,
						"NORMAL":21,
						"TEXCOORD_0":22
					},
					"indices":23,
					"material":5
				}
			]
		}
	],
	"accessors":[
		{
			"bufferView":0,
			"componentType":5126,
			"count":108,
			"max":[
				1.6301767826080322,
				1.1221226453781128,
				1.6301767826080322
			],
			"min":[
				-1.6301767826080322,
				-1.360344409942627,
				-1.6301767826080322
			],
			"type":"VEC3"
		},
		{
			"bufferView":1,
			"componentType":5126,
			"count":108,
			"type":"VEC3"
		},
		{
			"bufferView":2,
			"componentType":5126,
			"count":108,
			"type":"VEC2"
		},
		{
			"bufferView":3,
			"componentType":5123,
			"count":222,
			"type":"SCALAR"
		},
		{
			"bufferView":4,
			"componentType":5126,
			"count":60,
			"max":[
				0.9510565400123596,
				1,
				1
			],
			"min":[
				-0.9510565400123596,
				-3.595231533050537,
				-1
			],
			"type":"VEC3"
		},
		{
			"bufferView":5,
			"componentType":5126,
			"count":60,
			"type":"VEC3"
		},
		{
			"bufferView":6,
			"componentType":5126,
			"count":60,
			"type":"VEC2"
		},
		{
			"bufferView":7,
			"componentType":5123,
			"count":108,
			"type":"SCALAR"
		},
		{
			"bufferView":8,
			"componentType":5126,
			"count":192,
			"max":[
				1,
				1,
				1
			],
			"min":[
				-1,
				-1,
				-1
			],
			"type":"VEC3"
		},
		{
			"bufferView":9,
			"componentType":5126,
			"count":192,
			"type":"VEC3"
		},
		{
			"bufferView":10,
			"componentType":5126,
			"count":192,
			"type":"VEC2"
		},
		{
			"bufferView":11,
			"componentType":5123,
			"count":372,
			"type":"SCALAR"
		},
		{
			"bufferView":12,
			"componentType":5126,
			"count":290,
			"max":[
				7.43851900100708,
				1,
				1
			],
			"min":[
				-0.9510565400123596,
				-1.9768140316009521,
				-1
			],
			"type":"VEC3"
		},
		{
			"bufferView":13,
			"componentType":5126,
			"count":290,
			"type":"VEC3"
		},
		{
			"bufferView":14,
			"componentType":5126,
			"count":290,
			"type":"VEC2"
		},
		{
			"bufferView":15,
			"componentType":5123,
			"count":444,
			"type":"SCALAR"
		},
		{
			"bufferView":16,
			"componentType":5126,
			"count":100,
			"max":[
				0.9510565400123596,
				1,
				1
			],
			"min":[
				-0.9510565400123596,
				-3.4468910694122314,
				-1
			],
			"type":"VEC3"
		},
		{
			"bufferView":17,
			"componentType":5126,
			"count":100,
			"type":"VEC3"
		},
		{
			"bufferView":18,
			"componentType":5126,
			"count":100,
			"type":"VEC2"
		},
		{
			"bufferView":19,
			"componentType":5123,
			"count":168,
			"type":"SCALAR"
		},
		{
			"bufferView":20,
			"componentType":5126,
			"count":656,
			"max":[
				24.34369659423828,
				5.209636688232422,
				6.4011688232421875
			],
			"min":[
				-0.9807852506637573,
				-12.226994514465332,
				-6.401171684265137
			],
			"type":"VEC3"
		},
		{
			"bufferView":21,
			"componentType":5126,
			"count":656,
			"type":"VEC3"
		},
		{
			"bufferView":22,
			"componentType":5126,
			"count":656,
			"type":"VEC2"
		},
		{
			"bufferView":23,
			"componentType":5123,
			"count":1254,
			"type":"SCALAR"
		}
	],
	"bufferViews":[
		{
			"buffer":0,
			"byteLength":1296,
			"byteOffset":0,
			"target":34962
		},
		{
			"buffer":0,
			"byteLength":1296,
			"byteOffset":1296,
			"target":34962
		},
		{
			"buffer":0,
			"byteLength":864,
			"byteOffset":2592,
			"target":34962
		},
		{
			"buffer":0,
			"byteLength":444,
			"byteOffset":3456,
			"target":34963
		},
		{
			"buffer":0,
			"byteLength":720,
			"byteOffset":3900,
			"target":34962
		},
		{
			"buffer":0,
			"byteLength":720,
			"byteOffset":4620,
			"target":34962
		},
		{
			"buffer":0,
			"byteLength":480,
			"byteOffset":5340,
			"target":34962
		},
		{
			"buffer":0,
			"byteLength":216,
			"byteOffset":5820,
			"target":34963
		},
		{
			"buffer":0,
			"byteLength":2304,
			"byteOffset":6036,
			"target":34962
		},
		{
			"buffer":0,
			"byteLength":2304,
			"byteOffset":8340,
			"target":34962
		},
		{
			"buffer":0,
			"byteLength":1536,
			"byteOffset":10644,
			"target":34962
		},
		{
			"buffer":0,
			"byteLength":744,
			"byteOffset":12180,
			"target":34963
		},
		{
			"buffer":0,
			"byteLength":3480,
			"byteOffset":12924,
			"target":34962
		},
		{
			"buffer":0,
			"byteLength":3480,
			"byteOffset":16404,
			"target":34962
		},
		{
			"buffer":0,
			"byteLength":2320,
			"byteOffset":19884,
			"target":34962
		},
		{
			"buffer":0,
			"byteLength":888,
			"byteOffset":22204,
			"target":34963
		},
		{
			"buffer":0,
			"byteLength":1200,
			"byteOffset":23092,
			"target":34962
		},
		{
			"buffer":0,
			"byteLength":1200,
			"byteOffset":24292,
			"target":34962
		},
		{
			"buffer":0,
			"byteLength":800,
			"byteOffset":25492,
			"target":34962
		},
		{
			"buffer":0,
			"byteLength":336,
			"byteOffset":26292,
			"target":34963
		},
		{
			"buffer":0,
			"byteLength":7872,
			"byteOffset":26628,
			"target":34962
		},
		{
			"buffer":0,
			"byteLength":7872,
			"byteOffset":34500,
			"target":34962
		},
		{
			"buffer":0,
			"byteLength":5248,
			"byteOffset":42372,
			"target":34962
		},
		{
			"buffer":0,
			"byteLength":2508,
			"byteOffset":47620,
			"target":34963
		}
	],
	"buffers":[
		{
			"byteLength":50128,
			"uri":"gramofoni-fff-a38422ffa298c0142478cc93a83915cd.bin"
		}
	]
}
