{
	"asset":{
		"generator":"Khronos glTF Blender I/O v4.0.44",
		"version":"2.0"
	},
	"scene":0,
	"scenes":[
		{
			"name":"Scene",
			"nodes":[
				0,
				1,
				2,
				3,
				4,
				5,
				6,
				7,
				8,
				9,
				10,
				11,
				12,
				13,
				14,
				15
			]
		}
	],
	"nodes":[
		{
			"mesh":0,
			"name":"Cube-convcol",
			"rotation":[
				-1,
				0,
				0,
				7.549790126404332e-08
			],
			"scale":[
				0.3408632278442383,
				0.3408632278442383,
				0.3408632278442383
			],
			"translation":[
				-1.698054552078247,
				0.4212374687194824,
				-0.014237893745303154
			]
		},
		{
			"mesh":1,
			"name":"Cylinder",
			"rotation":[
				-1,
				0,
				0,
				7.549789415861596e-08
			],
			"scale":[
				-0.03277111053466797,
				-0.022771110758185387,
				-0.03277111053466797
			],
			"translation":[
				-1.698054552078247,
				0.008471392095088959,
				-0.01423792913556099
			]
		},
		{
			"mesh":2,
			"name":"Cylinder.001",
			"rotation":[
				-1,
				0,
				0,
				7.549789415861596e-08
			],
			"scale":[
				0.4000000059604645,
				0.019999999552965164,
				0.4000000059604645
			],
			"translation":[
				-1.698054552078247,
				-0.01983923465013504,
				-0.014237931929528713
			]
		},
		{
			"mesh":3,
			"name":"Cylinder.003",
			"rotation":[
				-1,
				0,
				0,
				7.549790126404332e-08
			],
			"scale":[
				-0.03693445771932602,
				-0.03693445771932602,
				-0.03693445771932602
			],
			"translation":[
				-2.014253616333008,
				-0.132124662399292,
				-0.014237942174077034
			]
		},
		{
			"mesh":4,
			"name":"Cylinder.004",
			"rotation":[
				-1,
				0,
				0,
				7.549790836947068e-08
			],
			"scale":[
				0.013848060742020607,
				0.013848060742020607,
				0.013848060742020607
			],
			"translation":[
				-2.011901378631592,
				-0.09071964770555496,
				-0.014237938448786736
			]
		},
		{
			"mesh":5,
			"name":"Cylinder.002.002-convcol",
			"rotation":[
				-0.7071068286895752,
				-0.7071067690849304,
				0,
				3.090862321641907e-08
			],
			"scale":[
				-0.05494248867034912,
				-0.05494248867034912,
				-0.05494248867034912
			],
			"translation":[
				-2.099708318710327,
				0.27180278301239014,
				-0.014237906783819199
			]
		},
		{
			"mesh":6,
			"name":"Cylinder.005",
			"rotation":[
				0,
				0,
				1,
				5.69993372976068e-15
			],
			"scale":[
				0.013848060742020607,
				0.013848060742020607,
				0.013848060742020607
			],
			"translation":[
				1.8153995275497437,
				-0.09266314655542374,
				0
			]
		},
		{
			"mesh":7,
			"name":"Cylinder.006",
			"rotation":[
				0,
				0,
				1,
				5.699933306244206e-15
			],
			"scale":[
				-0.03693445771932602,
				-0.03693445771932602,
				-0.03693445771932602
			],
			"translation":[
				1.8177517652511597,
				-0.13406816124916077,
				0
			]
		},
		{
			"mesh":8,
			"name":"Cylinder.007-convcol",
			"rotation":[
				0,
				0,
				0.7071067690849304,
				0.7071068286895752
			],
			"scale":[
				-0.05494248867034912,
				-0.05494248867034912,
				-0.05494248867034912
			],
			"translation":[
				1.903206467628479,
				0.26985928416252136,
				0
			]
		},
		{
			"mesh":9,
			"name":"Cylinder.008",
			"rotation":[
				0,
				0,
				1,
				5.699932035694785e-15
			],
			"scale":[
				0.4000000059604645,
				0.019999999552965164,
				0.4000000059604645
			],
			"translation":[
				1.501552700996399,
				-0.021782733500003815,
				0
			]
		},
		{
			"mesh":10,
			"name":"Cylinder.009",
			"rotation":[
				0,
				0,
				1,
				5.699933306244206e-15
			],
			"scale":[
				-0.03277111053466797,
				-0.022771110758185387,
				-0.03277111053466797
			],
			"translation":[
				1.501552700996399,
				0.006527893245220184,
				0
			]
		},
		{
			"mesh":11,
			"name":"Cube.001-convcol",
			"rotation":[
				0,
				0,
				1,
				5.699933306244206e-15
			],
			"scale":[
				0.3408632278442383,
				0.3408632278442383,
				0.3408632278442383
			],
			"translation":[
				1.501552700996399,
				0.41929396986961365,
				0
			]
		},
		{
			"mesh":12,
			"name":"Cylinder.010-col",
			"scale":[
				0.19118517637252808,
				0.19118517637252808,
				0.19118517637252808
			],
			"translation":[
				-1.6828382015228271,
				1.0842772722244263,
				0
			]
		},
		{
			"mesh":13,
			"name":"Cylinder.002-convcol.001",
			"rotation":[
				-0.7147163152694702,
				0.002114961389452219,
				-0.0007637055241502821,
				0.6994109153747559
			],
			"scale":[
				0.05024757608771324,
				0.05024757608771324,
				0.05024757981300354
			],
			"translation":[
				-1.702233076095581,
				-0.19640058279037476,
				-0.24246951937675476
			]
		},
		{
			"mesh":14,
			"name":"Cylinder.001-convcol.001",
			"rotation":[
				0.32622066140174866,
				0.6273596286773682,
				-0.6273596286773682,
				0.32622063159942627
			],
			"scale":[
				-0.04132656753063202,
				-0.04132656753063202,
				-0.04132656753063202
			],
			"translation":[
				-0.6626364588737488,
				-0.1968073844909668,
				-1.686889886856079
			]
		},
		{
			"mesh":15,
			"name":"Cylinder-convcol.001",
			"rotation":[
				0.32622069120407104,
				0.6273596286773682,
				-0.6273596882820129,
				0.32622066140174866
			],
			"scale":[
				0.04991181939840317,
				0.04991181939840317,
				0.04991181939840317
			],
			"translation":[
				-1.2911529541015625,
				-0.1968073844909668,
				-1.2459462881088257
			]
		}
	],
	"materials":[
		{
			"doubleSided":true,
			"name":"Material.001",
			"pbrMetallicRoughness":{
				"baseColorFactor":[
					0.0656079351902008,
					0.017240513116121292,
					0,
					1
				],
				"metallicFactor":0,
				"roughnessFactor":0.5
			}
		},
		{
			"doubleSided":true,
			"name":"Material.002",
			"pbrMetallicRoughness":{
				"baseColorFactor":[
					0.11236758530139923,
					0.11236758530139923,
					0.11236758530139923,
					1
				],
				"metallicFactor":0.4173228442668915,
				"roughnessFactor":0.5
			}
		},
		{
			"doubleSided":true,
			"name":"Material.003",
			"pbrMetallicRoughness":{
				"baseColorFactor":[
					0,
					0,
					0,
					1
				],
				"metallicFactor":0,
				"roughnessFactor":0.5
			}
		},
		{
			"doubleSided":true,
			"name":"Material.005",
			"pbrMetallicRoughness":{
				"baseColorFactor":[
					0.68065345287323,
					1,
					0,
					1
				],
				"roughnessFactor":0.5
			}
		},
		{
			"doubleSided":true,
			"name":"Material.006",
			"pbrMetallicRoughness":{
				"baseColorFactor":[
					0.10377001762390137,
					0.14829394221305847,
					0.26445695757865906,
					1
				],
				"metallicFactor":0,
				"roughnessFactor":0.5
			}
		},
		{
			"doubleSided":true,
			"name":"Material.007",
			"pbrMetallicRoughness":{
				"baseColorFactor":[
					0.8370661735534668,
					1,
					0.26079490780830383,
					1
				],
				"roughnessFactor":0.5
			}
		},
		{
			"doubleSided":true,
			"name":"Material.004",
			"pbrMetallicRoughness":{
				"baseColorFactor":[
					0.10377001762390137,
					0.14829394221305847,
					0.26445695757865906,
					1
				],
				"metallicFactor":0,
				"roughnessFactor":0.5
			}
		},
		{
			"doubleSided":true,
			"name":"Material.008",
			"pbrMetallicRoughness":{
				"baseColorFactor":[
					0.68065345287323,
					1,
					0,
					1
				],
				"roughnessFactor":0.5
			}
		},
		{
			"doubleSided":true,
			"name":"Material.009",
			"pbrMetallicRoughness":{
				"baseColorFactor":[
					0.8370661735534668,
					1,
					0.26079490780830383,
					1
				],
				"roughnessFactor":0.5
			}
		},
		{
			"doubleSided":true,
			"name":"Material.010",
			"pbrMetallicRoughness":{
				"baseColorFactor":[
					0,
					0,
					0,
					1
				],
				"metallicFactor":0,
				"roughnessFactor":0.5
			}
		},
		{
			"doubleSided":true,
			"name":"Material.011",
			"pbrMetallicRoughness":{
				"baseColorFactor":[
					0.11236758530139923,
					0.11236758530139923,
					0.11236758530139923,
					1
				],
				"metallicFactor":0.4173228442668915,
				"roughnessFactor":0.5
			}
		},
		{
			"doubleSided":true,
			"name":"Material.012",
			"pbrMetallicRoughness":{
				"baseColorFactor":[
					0.0656079351902008,
					0.017240513116121292,
					0,
					1
				],
				"metallicFactor":0,
				"roughnessFactor":0.5
			}
		},
		{
			"doubleSided":true,
			"name":"Material",
			"pbrMetallicRoughness":{
				"baseColorFactor":[
					0,
					0,
					0,
					1
				],
				"metallicFactor":0,
				"roughnessFactor":0.5
			}
		},
		{
			"doubleSided":true,
			"name":"Material.031",
			"pbrMetallicRoughness":{
				"baseColorFactor":[
					0.01661941222846508,
					0.01661941222846508,
					0.01661941222846508,
					1
				],
				"metallicFactor":0,
				"roughnessFactor":0.5
			}
		},
		{
			"doubleSided":true,
			"name":"Material.032",
			"pbrMetallicRoughness":{
				"baseColorFactor":[
					0.011301218532025814,
					0.011301218532025814,
					0.011301218532025814,
					1
				],
				"metallicFactor":0,
				"roughnessFactor":0.5
			}
		},
		{
			"doubleSided":true,
			"name":"Material.033",
			"pbrMetallicRoughness":{
				"baseColorFactor":[
					0.002197845373302698,
					0.002197845373302698,
					0.002197845373302698,
					1
				],
				"metallicFactor":0,
				"roughnessFactor":0.5
			}
		}
	],
	"meshes":[
		{
			"name":"Cube.001",
			"primitives":[
				{
					"attributes":{
						"POSITION":0,
						"NORMAL":1,
						"TEXCOORD_0":2
					},
					"indices":3,
					"material":0
				}
			]
		},
		{
			"name":"Cylinder",
			"primitives":[
				{
					"attributes":{
						"POSITION":4,
						"NORMAL":5,
						"TEXCOORD_0":6
					},
					"indices":7,
					"material":1
				}
			]
		},
		{
			"name":"Cylinder.002",
			"primitives":[
				{
					"attributes":{
						"POSITION":8,
						"NORMAL":9,
						"TEXCOORD_0":10
					},
					"indices":11,
					"material":2
				}
			]
		},
		{
			"name":"Cylinder.004",
			"primitives":[
				{
					"attributes":{
						"POSITION":12,
						"NORMAL":13,
						"TEXCOORD_0":14
					},
					"indices":15,
					"material":3
				}
			]
		},
		{
			"name":"Cylinder.005",
			"primitives":[
				{
					"attributes":{
						"POSITION":16,
						"NORMAL":17,
						"TEXCOORD_0":18
					},
					"indices":19,
					"material":4
				}
			]
		},
		{
			"name":"Cylinder.006",
			"primitives":[
				{
					"attributes":{
						"POSITION":20,
						"NORMAL":21,
						"TEXCOORD_0":22
					},
					"indices":23,
					"material":5
				}
			]
		},
		{
			"name":"Cylinder.001",
			"primitives":[
				{
					"attributes":{
						"POSITION":24,
						"NORMAL":25,
						"TEXCOORD_0":26
					},
					"indices":19,
					"material":6
				}
			]
		},
		{
			"name":"Cylinder.003",
			"primitives":[
				{
					"attributes":{
						"POSITION":27,
						"NORMAL":28,
						"TEXCOORD_0":29
					},
					"indices":15,
					"material":7
				}
			]
		},
		{
			"name":"Cylinder.007",
			"primitives":[
				{
					"attributes":{
						"POSITION":30,
						"NORMAL":31,
						"TEXCOORD_0":32
					},
					"indices":33,
					"material":8
				}
			]
		},
		{
			"name":"Cylinder.008",
			"primitives":[
				{
					"attributes":{
						"POSITION":34,
						"NORMAL":35,
						"TEXCOORD_0":36
					},
					"indices":11,
					"material":9
				}
			]
		},
		{
			"name":"Cylinder.009",
			"primitives":[
				{
					"attributes":{
						"POSITION":37,
						"NORMAL":38,
						"TEXCOORD_0":39
					},
					"indices":7,
					"material":10
				}
			]
		},
		{
			"name":"Cube.002",
			"primitives":[
				{
					"attributes":{
						"POSITION":40,
						"NORMAL":41,
						"TEXCOORD_0":42
					},
					"indices":3,
					"material":11
				}
			]
		},
		{
			"name":"Cylinder.010",
			"primitives":[
				{
					"attributes":{
						"POSITION":43,
						"NORMAL":44,
						"TEXCOORD_0":45
					},
					"indices":46,
					"material":12
				}
			]
		},
		{
			"name":"Cylinder.017",
			"primitives":[
				{
					"attributes":{
						"POSITION":47,
						"NORMAL":48,
						"TEXCOORD_0":49
					},
					"indices":50,
					"material":13
				}
			]
		},
		{
			"name":"Cylinder.018",
			"primitives":[
				{
					"attributes":{
						"POSITION":51,
						"NORMAL":52,
						"TEXCOORD_0":53
					},
					"indices":54,
					"material":14
				}
			]
		},
		{
			"name":"Cylinder.019",
			"primitives":[
				{
					"attributes":{
						"POSITION":55,
						"NORMAL":56,
						"TEXCOORD_0":57
					},
					"indices":58,
					"material":15
				}
			]
		}
	],
	"accessors":[
		{
			"bufferView":0,
			"componentType":5126,
			"count":108,
			"max":[
				1.6301767826080322,
				1.1221226453781128,
				1.6301767826080322
			],
			"min":[
				-1.6301767826080322,
				-1.360344409942627,
				-1.6301767826080322
			],
			"type":"VEC3"
		},
		{
			"bufferView":1,
			"componentType":5126,
			"count":108,
			"type":"VEC3"
		},
		{
			"bufferView":2,
			"componentType":5126,
			"count":108,
			"type":"VEC2"
		},
		{
			"bufferView":3,
			"componentType":5123,
			"count":222,
			"type":"SCALAR"
		},
		{
			"bufferView":4,
			"componentType":5126,
			"count":60,
			"max":[
				0.9510565400123596,
				1,
				1
			],
			"min":[
				-0.9510565400123596,
				-3.595231533050537,
				-1
			],
			"type":"VEC3"
		},
		{
			"bufferView":5,
			"componentType":5126,
			"count":60,
			"type":"VEC3"
		},
		{
			"bufferView":6,
			"componentType":5126,
			"count":60,
			"type":"VEC2"
		},
		{
			"bufferView":7,
			"componentType":5123,
			"count":108,
			"type":"SCALAR"
		},
		{
			"bufferView":8,
			"componentType":5126,
			"count":102,
			"max":[
				1,
				1,
				1
			],
			"min":[
				-1,
				-1,
				-1
			],
			"type":"VEC3"
		},
		{
			"bufferView":9,
			"componentType":5126,
			"count":102,
			"type":"VEC3"
		},
		{
			"bufferView":10,
			"componentType":5126,
			"count":102,
			"type":"VEC2"
		},
		{
			"bufferView":11,
			"componentType":5123,
			"count":192,
			"type":"SCALAR"
		},
		{
			"bufferView":12,
			"componentType":5126,
			"count":290,
			"max":[
				7.43851900100708,
				1,
				1
			],
			"min":[
				-0.9510565400123596,
				-1.9768140316009521,
				-1
			],
			"type":"VEC3"
		},
		{
			"bufferView":13,
			"componentType":5126,
			"count":290,
			"type":"VEC3"
		},
		{
			"bufferView":14,
			"componentType":5126,
			"count":290,
			"type":"VEC2"
		},
		{
			"bufferView":15,
			"componentType":5123,
			"count":444,
			"type":"SCALAR"
		},
		{
			"bufferView":16,
			"componentType":5126,
			"count":60,
			"max":[
				0.9510565400123596,
				1,
				1
			],
			"min":[
				-0.9510565400123596,
				-3.4468910694122314,
				-1
			],
			"type":"VEC3"
		},
		{
			"bufferView":17,
			"componentType":5126,
			"count":60,
			"type":"VEC3"
		},
		{
			"bufferView":18,
			"componentType":5126,
			"count":60,
			"type":"VEC2"
		},
		{
			"bufferView":19,
			"componentType":5123,
			"count":78,
			"type":"SCALAR"
		},
		{
			"bufferView":20,
			"componentType":5126,
			"count":670,
			"max":[
				24.34369659423828,
				5.209636688232422,
				6.4011688232421875
			],
			"min":[
				-0.9807852506637573,
				-12.226994514465332,
				-6.401171684265137
			],
			"type":"VEC3"
		},
		{
			"bufferView":21,
			"componentType":5126,
			"count":670,
			"type":"VEC3"
		},
		{
			"bufferView":22,
			"componentType":5126,
			"count":670,
			"type":"VEC2"
		},
		{
			"bufferView":23,
			"componentType":5123,
			"count":1254,
			"type":"SCALAR"
		},
		{
			"bufferView":24,
			"componentType":5126,
			"count":60,
			"max":[
				0.9510565400123596,
				1,
				1
			],
			"min":[
				-0.9510565400123596,
				-3.4468910694122314,
				-1
			],
			"type":"VEC3"
		},
		{
			"bufferView":25,
			"componentType":5126,
			"count":60,
			"type":"VEC3"
		},
		{
			"bufferView":26,
			"componentType":5126,
			"count":60,
			"type":"VEC2"
		},
		{
			"bufferView":27,
			"componentType":5126,
			"count":290,
			"max":[
				7.43851900100708,
				1,
				1
			],
			"min":[
				-0.9510565400123596,
				-1.9768140316009521,
				-1
			],
			"type":"VEC3"
		},
		{
			"bufferView":28,
			"componentType":5126,
			"count":290,
			"type":"VEC3"
		},
		{
			"bufferView":29,
			"componentType":5126,
			"count":290,
			"type":"VEC2"
		},
		{
			"bufferView":30,
			"componentType":5126,
			"count":662,
			"max":[
				24.34369659423828,
				5.209636688232422,
				6.4011688232421875
			],
			"min":[
				-0.9807852506637573,
				-12.226994514465332,
				-6.401171684265137
			],
			"type":"VEC3"
		},
		{
			"bufferView":31,
			"componentType":5126,
			"count":662,
			"type":"VEC3"
		},
		{
			"bufferView":32,
			"componentType":5126,
			"count":662,
			"type":"VEC2"
		},
		{
			"bufferView":33,
			"componentType":5123,
			"count":1254,
			"type":"SCALAR"
		},
		{
			"bufferView":34,
			"componentType":5126,
			"count":102,
			"max":[
				1,
				1,
				1
			],
			"min":[
				-1,
				-1,
				-1
			],
			"type":"VEC3"
		},
		{
			"bufferView":35,
			"componentType":5126,
			"count":102,
			"type":"VEC3"
		},
		{
			"bufferView":36,
			"componentType":5126,
			"count":102,
			"type":"VEC2"
		},
		{
			"bufferView":37,
			"componentType":5126,
			"count":60,
			"max":[
				0.9510565400123596,
				1,
				1
			],
			"min":[
				-0.9510565400123596,
				-3.595231533050537,
				-1
			],
			"type":"VEC3"
		},
		{
			"bufferView":38,
			"componentType":5126,
			"count":60,
			"type":"VEC3"
		},
		{
			"bufferView":39,
			"componentType":5126,
			"count":60,
			"type":"VEC2"
		},
		{
			"bufferView":40,
			"componentType":5126,
			"count":108,
			"max":[
				1.6301767826080322,
				1.1221226453781128,
				1.6301767826080322
			],
			"min":[
				-1.6301767826080322,
				-1.360344409942627,
				-1.6301767826080322
			],
			"type":"VEC3"
		},
		{
			"bufferView":41,
			"componentType":5126,
			"count":108,
			"type":"VEC3"
		},
		{
			"bufferView":42,
			"componentType":5126,
			"count":108,
			"type":"VEC2"
		},
		{
			"bufferView":43,
			"componentType":5126,
			"count":542,
			"max":[
				18.01726722717285,
				8.303189277648926,
				1.01183021068573
			],
			"min":[
				-1.0279377698898315,
				-1.2438340187072754,
				-1.313056468963623
			],
			"type":"VEC3"
		},
		{
			"bufferView":44,
			"componentType":5126,
			"count":542,
			"type":"VEC3"
		},
		{
			"bufferView":45,
			"componentType":5126,
			"count":542,
			"type":"VEC2"
		},
		{
			"bufferView":46,
			"componentType":5123,
			"count":618,
			"type":"SCALAR"
		},
		{
			"bufferView":47,
			"componentType":5126,
			"count":218,
			"max":[
				1.0914822816848755,
				1.0008310079574585,
				2.5993640422821045
			],
			"min":[
				-1.004298448562622,
				-5.994481086730957,
				-1.2459903955459595
			],
			"type":"VEC3"
		},
		{
			"bufferView":48,
			"componentType":5126,
			"count":218,
			"type":"VEC3"
		},
		{
			"bufferView":49,
			"componentType":5126,
			"count":218,
			"type":"VEC2"
		},
		{
			"bufferView":50,
			"componentType":5123,
			"count":270,
			"type":"SCALAR"
		},
		{
			"bufferView":51,
			"componentType":5126,
			"count":464,
			"max":[
				13.75186824798584,
				40.832279205322266,
				1.004423975944519
			],
			"min":[
				-1.0092028379440308,
				-1.0000038146972656,
				-1.2275152206420898
			],
			"type":"VEC3"
		},
		{
			"bufferView":52,
			"componentType":5126,
			"count":464,
			"type":"VEC3"
		},
		{
			"bufferView":53,
			"componentType":5126,
			"count":464,
			"type":"VEC2"
		},
		{
			"bufferView":54,
			"componentType":5123,
			"count":738,
			"type":"SCALAR"
		},
		{
			"bufferView":55,
			"componentType":5126,
			"count":936,
			"max":[
				3.437540292739868,
				25.130788803100586,
				3.4382903575897217
			],
			"min":[
				-3.5070743560791016,
				16.19533920288086,
				-3.4316093921661377
			],
			"type":"VEC3"
		},
		{
			"bufferView":56,
			"componentType":5126,
			"count":936,
			"type":"VEC3"
		},
		{
			"bufferView":57,
			"componentType":5126,
			"count":936,
			"type":"VEC2"
		},
		{
			"bufferView":58,
			"componentType":5123,
			"count":1536,
			"type":"SCALAR"
		}
	],
	"bufferViews":[
		{
			"buffer":0,
			"byteLength":1296,
			"byteOffset":0,
			"target":34962
		},
		{
			"buffer":0,
			"byteLength":1296,
			"byteOffset":1296,
			"target":34962
		},
		{
			"buffer":0,
			"byteLength":864,
			"byteOffset":2592,
			"target":34962
		},
		{
			"buffer":0,
			"byteLength":444,
			"byteOffset":3456,
			"target":34963
		},
		{
			"buffer":0,
			"byteLength":720,
			"byteOffset":3900,
			"target":34962
		},
		{
			"buffer":0,
			"byteLength":720,
			"byteOffset":4620,
			"target":34962
		},
		{
			"buffer":0,
			"byteLength":480,
			"byteOffset":5340,
			"target":34962
		},
		{
			"buffer":0,
			"byteLength":216,
			"byteOffset":5820,
			"target":34963
		},
		{
			"buffer":0,
			"byteLength":1224,
			"byteOffset":6036,
			"target":34962
		},
		{
			"buffer":0,
			"byteLength":1224,
			"byteOffset":7260,
			"target":34962
		},
		{
			"buffer":0,
			"byteLength":816,
			"byteOffset":8484,
			"target":34962
		},
		{
			"buffer":0,
			"byteLength":384,
			"byteOffset":9300,
			"target":34963
		},
		{
			"buffer":0,
			"byteLength":3480,
			"byteOffset":9684,
			"target":34962
		},
		{
			"buffer":0,
			"byteLength":3480,
			"byteOffset":13164,
			"target":34962
		},
		{
			"buffer":0,
			"byteLength":2320,
			"byteOffset":16644,
			"target":34962
		},
		{
			"buffer":0,
			"byteLength":888,
			"byteOffset":18964,
			"target":34963
		},
		{
			"buffer":0,
			"byteLength":720,
			"byteOffset":19852,
			"target":34962
		},
		{
			"buffer":0,
			"byteLength":720,
			"byteOffset":20572,
			"target":34962
		},
		{
			"buffer":0,
			"byteLength":480,
			"byteOffset":21292,
			"target":34962
		},
		{
			"buffer":0,
			"byteLength":156,
			"byteOffset":21772,
			"target":34963
		},
		{
			"buffer":0,
			"byteLength":8040,
			"byteOffset":21928,
			"target":34962
		},
		{
			"buffer":0,
			"byteLength":8040,
			"byteOffset":29968,
			"target":34962
		},
		{
			"buffer":0,
			"byteLength":5360,
			"byteOffset":38008,
			"target":34962
		},
		{
			"buffer":0,
			"byteLength":2508,
			"byteOffset":43368,
			"target":34963
		},
		{
			"buffer":0,
			"byteLength":720,
			"byteOffset":45876,
			"target":34962
		},
		{
			"buffer":0,
			"byteLength":720,
			"byteOffset":46596,
			"target":34962
		},
		{
			"buffer":0,
			"byteLength":480,
			"byteOffset":47316,
			"target":34962
		},
		{
			"buffer":0,
			"byteLength":3480,
			"byteOffset":47796,
			"target":34962
		},
		{
			"buffer":0,
			"byteLength":3480,
			"byteOffset":51276,
			"target":34962
		},
		{
			"buffer":0,
			"byteLength":2320,
			"byteOffset":54756,
			"target":34962
		},
		{
			"buffer":0,
			"byteLength":7944,
			"byteOffset":57076,
			"target":34962
		},
		{
			"buffer":0,
			"byteLength":7944,
			"byteOffset":65020,
			"target":34962
		},
		{
			"buffer":0,
			"byteLength":5296,
			"byteOffset":72964,
			"target":34962
		},
		{
			"buffer":0,
			"byteLength":2508,
			"byteOffset":78260,
			"target":34963
		},
		{
			"buffer":0,
			"byteLength":1224,
			"byteOffset":80768,
			"target":34962
		},
		{
			"buffer":0,
			"byteLength":1224,
			"byteOffset":81992,
			"target":34962
		},
		{
			"buffer":0,
			"byteLength":816,
			"byteOffset":83216,
			"target":34962
		},
		{
			"buffer":0,
			"byteLength":720,
			"byteOffset":84032,
			"target":34962
		},
		{
			"buffer":0,
			"byteLength":720,
			"byteOffset":84752,
			"target":34962
		},
		{
			"buffer":0,
			"byteLength":480,
			"byteOffset":85472,
			"target":34962
		},
		{
			"buffer":0,
			"byteLength":1296,
			"byteOffset":85952,
			"target":34962
		},
		{
			"buffer":0,
			"byteLength":1296,
			"byteOffset":87248,
			"target":34962
		},
		{
			"buffer":0,
			"byteLength":864,
			"byteOffset":88544,
			"target":34962
		},
		{
			"buffer":0,
			"byteLength":6504,
			"byteOffset":89408,
			"target":34962
		},
		{
			"buffer":0,
			"byteLength":6504,
			"byteOffset":95912,
			"target":34962
		},
		{
			"buffer":0,
			"byteLength":4336,
			"byteOffset":102416,
			"target":34962
		},
		{
			"buffer":0,
			"byteLength":1236,
			"byteOffset":106752,
			"target":34963
		},
		{
			"buffer":0,
			"byteLength":2616,
			"byteOffset":107988,
			"target":34962
		},
		{
			"buffer":0,
			"byteLength":2616,
			"byteOffset":110604,
			"target":34962
		},
		{
			"buffer":0,
			"byteLength":1744,
			"byteOffset":113220,
			"target":34962
		},
		{
			"buffer":0,
			"byteLength":540,
			"byteOffset":114964,
			"target":34963
		},
		{
			"buffer":0,
			"byteLength":5568,
			"byteOffset":115504,
			"target":34962
		},
		{
			"buffer":0,
			"byteLength":5568,
			"byteOffset":121072,
			"target":34962
		},
		{
			"buffer":0,
			"byteLength":3712,
			"byteOffset":126640,
			"target":34962
		},
		{
			"buffer":0,
			"byteLength":1476,
			"byteOffset":130352,
			"target":34963
		},
		{
			"buffer":0,
			"byteLength":11232,
			"byteOffset":131828,
			"target":34962
		},
		{
			"buffer":0,
			"byteLength":11232,
			"byteOffset":143060,
			"target":34962
		},
		{
			"buffer":0,
			"byteLength":7488,
			"byteOffset":154292,
			"target":34962
		},
		{
			"buffer":0,
			"byteLength":3072,
			"byteOffset":161780,
			"target":34963
		}
	],
	"buffers":[
		{
			"byteLength":164852,
			"uri":"gramofoni-R-094583fcb5643cc39290a4c5c6aee6f8.bin"
		}
	]
}
