{
	"asset":{
		"generator":"Khronos glTF Blender I/O v4.0.44",
		"version":"2.0"
	},
	"scene":0,
	"scenes":[
		{
			"name":"Scene",
			"nodes":[
				0
			]
		}
	],
	"nodes":[
		{
			"mesh":0,
			"name":"Cylinder-col",
			"translation":[
				0,
				1.0170488357543945,
				0
			]
		}
	],
	"materials":[
		{
			"doubleSided":true,
			"name":"Material",
			"pbrMetallicRoughness":{
				"baseColorFactor":[
					0.02934129908680916,
					0.010702302679419518,
					0,
					1
				],
				"metallicFactor":0,
				"roughnessFactor":0.8601036071777344
			}
		}
	],
	"meshes":[
		{
			"name":"Cylinder.001",
			"primitives":[
				{
					"attributes":{
						"POSITION":0,
						"NORMAL":1,
						"TEXCOORD_0":2
					},
					"indices":3,
					"material":0
				}
			]
		}
	],
	"accessors":[
		{
			"bufferView":0,
			"componentType":5126,
			"count":282,
			"max":[
				1.1007548570632935,
				8.8961763381958,
				1.1574021577835083
			],
			"min":[
				-1.1007548570632935,
				-1,
				-1.1574021577835083
			],
			"type":"VEC3"
		},
		{
			"bufferView":1,
			"componentType":5126,
			"count":282,
			"type":"VEC3"
		},
		{
			"bufferView":2,
			"componentType":5126,
			"count":282,
			"type":"VEC2"
		},
		{
			"bufferView":3,
			"componentType":5123,
			"count":468,
			"type":"SCALAR"
		}
	],
	"bufferViews":[
		{
			"buffer":0,
			"byteLength":3384,
			"byteOffset":0,
			"target":34962
		},
		{
			"buffer":0,
			"byteLength":3384,
			"byteOffset":3384,
			"target":34962
		},
		{
			"buffer":0,
			"byteLength":2256,
			"byteOffset":6768,
			"target":34962
		},
		{
			"buffer":0,
			"byteLength":936,
			"byteOffset":9024,
			"target":34963
		}
	],
	"buffers":[
		{
			"byteLength":9960,
			"uri":"kalja-b958a5ed94291f3a7890803066e72b2e.bin"
		}
	]
}
