{
	"asset":{
		"generator":"Khronos glTF Blender I/O v4.0.44",
		"version":"2.0"
	},
	"scene":0,
	"scenes":[
		{
			"name":"Scene",
			"nodes":[
				0,
				1,
				2,
				3,
				4,
				5
			]
		}
	],
	"nodes":[
		{
			"mesh":0,
			"name":"Cylinder-convcol",
			"rotation":[
				0.7071068286895752,
				0,
				0,
				0.7071068286895752
			],
			"scale":[
				0.06953226774930954,
				0.06953226774930954,
				0.06953226774930954
			],
			"translation":[
				0,
				0,
				-0.4840638339519501
			]
		},
		{
			"mesh":1,
			"name":"Cylinder.001-convcol",
			"rotation":[
				0.7071068286895752,
				0,
				0,
				0.7071068286895752
			],
			"scale":[
				-0.057572126388549805,
				-0.057572126388549805,
				-0.057572126388549805
			],
			"translation":[
				0,
				0,
				0.5855118036270142
			]
		},
		{
			"mesh":2,
			"name":"Cylinder.002-convcol",
			"rotation":[
				-0.32905375957489014,
				-0.6195558309555054,
				-0.634463369846344,
				0.32454660534858704
			],
			"scale":[
				0.07000000029802322,
				0.07000000774860382,
				0.07000000029802322
			],
			"translation":[
				-0.8155015707015991,
				0.0005666322540491819,
				-1.755743145942688
			]
		},
		{
			"mesh":3,
			"name":"Cylinder.003",
			"scale":[
				-0.012809288688004017,
				-0.012809288688004017,
				-0.012809288688004017
			],
			"translation":[
				-1.0901700258255005,
				0.1868939995765686,
				-1.9405900239944458
			]
		},
		{
			"mesh":4,
			"name":"Torus",
			"scale":[
				0.011862322688102722,
				0.011862322688102722,
				0.011862322688102722
			],
			"translation":[
				-1.0901564359664917,
				0.2773819863796234,
				-1.9406373500823975
			]
		},
		{
			"mesh":5,
			"name":"Torus.001",
			"scale":[
				0.012054948136210442,
				0.012054948136210442,
				0.012054948136210442
			],
			"translation":[
				-1.0901564359664917,
				0.24807915091514587,
				-1.9406373500823975
			]
		}
	],
	"materials":[
		{
			"doubleSided":true,
			"name":"Material.006",
			"pbrMetallicRoughness":{
				"baseColorFactor":[
					0.002197845373302698,
					0.002197845373302698,
					0.002197845373302698,
					1
				],
				"metallicFactor":0,
				"roughnessFactor":0.5
			}
		},
		{
			"doubleSided":true,
			"name":"Material.005",
			"pbrMetallicRoughness":{
				"baseColorFactor":[
					0.011301218532025814,
					0.011301218532025814,
					0.011301218532025814,
					1
				],
				"metallicFactor":0,
				"roughnessFactor":0.5
			}
		},
		{
			"doubleSided":true,
			"name":"Material.004",
			"pbrMetallicRoughness":{
				"baseColorFactor":[
					0.01661941222846508,
					0.01661941222846508,
					0.01661941222846508,
					1
				],
				"metallicFactor":0,
				"roughnessFactor":0.5
			}
		},
		{
			"name":"Material.003",
			"pbrMetallicRoughness":{
				"baseColorFactor":[
					0.2954149544239044,
					0.3279110789299011,
					0,
					1
				],
				"roughnessFactor":0.5
			}
		},
		{
			"doubleSided":true,
			"name":"Material.002",
			"pbrMetallicRoughness":{
				"baseColorFactor":[
					0,
					0,
					0,
					1
				],
				"metallicFactor":0,
				"roughnessFactor":0.5
			}
		},
		{
			"doubleSided":true,
			"name":"Material.001",
			"pbrMetallicRoughness":{
				"baseColorFactor":[
					0,
					0,
					0,
					1
				],
				"metallicFactor":0,
				"roughnessFactor":0.5
			}
		}
	],
	"meshes":[
		{
			"name":"Cylinder",
			"primitives":[
				{
					"attributes":{
						"POSITION":0,
						"NORMAL":1,
						"TEXCOORD_0":2
					},
					"indices":3,
					"material":0
				}
			]
		},
		{
			"name":"Cylinder.001",
			"primitives":[
				{
					"attributes":{
						"POSITION":4,
						"NORMAL":5,
						"TEXCOORD_0":6
					},
					"indices":7,
					"material":1
				}
			]
		},
		{
			"name":"Cylinder.002",
			"primitives":[
				{
					"attributes":{
						"POSITION":8,
						"NORMAL":9,
						"TEXCOORD_0":10
					},
					"indices":11,
					"material":2
				}
			]
		},
		{
			"name":"Cylinder.003",
			"primitives":[
				{
					"attributes":{
						"POSITION":12,
						"NORMAL":13,
						"TEXCOORD_0":14
					},
					"indices":15,
					"material":3
				}
			]
		},
		{
			"name":"Torus",
			"primitives":[
				{
					"attributes":{
						"POSITION":16,
						"NORMAL":17,
						"TEXCOORD_0":18,
						"TANGENT":19
					},
					"indices":20,
					"material":4
				}
			]
		},
		{
			"name":"Torus.001",
			"primitives":[
				{
					"attributes":{
						"POSITION":21,
						"NORMAL":22,
						"TEXCOORD_0":23,
						"TANGENT":24
					},
					"indices":20,
					"material":5
				}
			]
		}
	],
	"accessors":[
		{
			"bufferView":0,
			"componentType":5126,
			"count":936,
			"max":[
				3.437540292739868,
				25.130788803100586,
				3.4382903575897217
			],
			"min":[
				-3.5070743560791016,
				16.19533920288086,
				-3.4316093921661377
			],
			"type":"VEC3"
		},
		{
			"bufferView":1,
			"componentType":5126,
			"count":936,
			"type":"VEC3"
		},
		{
			"bufferView":2,
			"componentType":5126,
			"count":936,
			"type":"VEC2"
		},
		{
			"bufferView":3,
			"componentType":5123,
			"count":1536,
			"type":"SCALAR"
		},
		{
			"bufferView":4,
			"componentType":5126,
			"count":464,
			"max":[
				13.75186824798584,
				40.832279205322266,
				1.004423975944519
			],
			"min":[
				-1.0092028379440308,
				-1.0000038146972656,
				-1.2275152206420898
			],
			"type":"VEC3"
		},
		{
			"bufferView":5,
			"componentType":5126,
			"count":464,
			"type":"VEC3"
		},
		{
			"bufferView":6,
			"componentType":5126,
			"count":464,
			"type":"VEC2"
		},
		{
			"bufferView":7,
			"componentType":5123,
			"count":738,
			"type":"SCALAR"
		},
		{
			"bufferView":8,
			"componentType":5126,
			"count":218,
			"max":[
				1.0914822816848755,
				1.0008310079574585,
				2.5993640422821045
			],
			"min":[
				-1.004298448562622,
				-5.994481086730957,
				-1.2459903955459595
			],
			"type":"VEC3"
		},
		{
			"bufferView":9,
			"componentType":5126,
			"count":218,
			"type":"VEC3"
		},
		{
			"bufferView":10,
			"componentType":5126,
			"count":218,
			"type":"VEC2"
		},
		{
			"bufferView":11,
			"componentType":5123,
			"count":270,
			"type":"SCALAR"
		},
		{
			"bufferView":12,
			"componentType":5126,
			"count":338,
			"max":[
				2.044234275817871,
				1.0887964963912964,
				2.044234275817871
			],
			"min":[
				-2.044234275817871,
				-11.21256160736084,
				-2.044234275817871
			],
			"type":"VEC3"
		},
		{
			"bufferView":13,
			"componentType":5126,
			"count":338,
			"type":"VEC3"
		},
		{
			"bufferView":14,
			"componentType":5126,
			"count":338,
			"type":"VEC2"
		},
		{
			"bufferView":15,
			"componentType":5123,
			"count":786,
			"type":"SCALAR"
		},
		{
			"bufferView":16,
			"componentType":5126,
			"count":188,
			"max":[
				1.25,
				0.21650634706020355,
				1.25
			],
			"min":[
				-1.25,
				-0.21650634706020355,
				-1.25
			],
			"type":"VEC3"
		},
		{
			"bufferView":17,
			"componentType":5126,
			"count":188,
			"type":"VEC3"
		},
		{
			"bufferView":18,
			"componentType":5126,
			"count":188,
			"type":"VEC2"
		},
		{
			"bufferView":19,
			"componentType":5126,
			"count":188,
			"type":"VEC4"
		},
		{
			"bufferView":20,
			"componentType":5123,
			"count":288,
			"type":"SCALAR"
		},
		{
			"bufferView":21,
			"componentType":5126,
			"count":188,
			"max":[
				1.25,
				0.21650634706020355,
				1.25
			],
			"min":[
				-1.25,
				-0.21650634706020355,
				-1.25
			],
			"type":"VEC3"
		},
		{
			"bufferView":22,
			"componentType":5126,
			"count":188,
			"type":"VEC3"
		},
		{
			"bufferView":23,
			"componentType":5126,
			"count":188,
			"type":"VEC2"
		},
		{
			"bufferView":24,
			"componentType":5126,
			"count":188,
			"type":"VEC4"
		}
	],
	"bufferViews":[
		{
			"buffer":0,
			"byteLength":11232,
			"byteOffset":0,
			"target":34962
		},
		{
			"buffer":0,
			"byteLength":11232,
			"byteOffset":11232,
			"target":34962
		},
		{
			"buffer":0,
			"byteLength":7488,
			"byteOffset":22464,
			"target":34962
		},
		{
			"buffer":0,
			"byteLength":3072,
			"byteOffset":29952,
			"target":34963
		},
		{
			"buffer":0,
			"byteLength":5568,
			"byteOffset":33024,
			"target":34962
		},
		{
			"buffer":0,
			"byteLength":5568,
			"byteOffset":38592,
			"target":34962
		},
		{
			"buffer":0,
			"byteLength":3712,
			"byteOffset":44160,
			"target":34962
		},
		{
			"buffer":0,
			"byteLength":1476,
			"byteOffset":47872,
			"target":34963
		},
		{
			"buffer":0,
			"byteLength":2616,
			"byteOffset":49348,
			"target":34962
		},
		{
			"buffer":0,
			"byteLength":2616,
			"byteOffset":51964,
			"target":34962
		},
		{
			"buffer":0,
			"byteLength":1744,
			"byteOffset":54580,
			"target":34962
		},
		{
			"buffer":0,
			"byteLength":540,
			"byteOffset":56324,
			"target":34963
		},
		{
			"buffer":0,
			"byteLength":4056,
			"byteOffset":56864,
			"target":34962
		},
		{
			"buffer":0,
			"byteLength":4056,
			"byteOffset":60920,
			"target":34962
		},
		{
			"buffer":0,
			"byteLength":2704,
			"byteOffset":64976,
			"target":34962
		},
		{
			"buffer":0,
			"byteLength":1572,
			"byteOffset":67680,
			"target":34963
		},
		{
			"buffer":0,
			"byteLength":2256,
			"byteOffset":69252,
			"target":34962
		},
		{
			"buffer":0,
			"byteLength":2256,
			"byteOffset":71508,
			"target":34962
		},
		{
			"buffer":0,
			"byteLength":1504,
			"byteOffset":73764,
			"target":34962
		},
		{
			"buffer":0,
			"byteLength":3008,
			"byteOffset":75268,
			"target":34962
		},
		{
			"buffer":0,
			"byteLength":576,
			"byteOffset":78276,
			"target":34963
		},
		{
			"buffer":0,
			"byteLength":2256,
			"byteOffset":78852,
			"target":34962
		},
		{
			"buffer":0,
			"byteLength":2256,
			"byteOffset":81108,
			"target":34962
		},
		{
			"buffer":0,
			"byteLength":1504,
			"byteOffset":83364,
			"target":34962
		},
		{
			"buffer":0,
			"byteLength":3008,
			"byteOffset":84868,
			"target":34962
		}
	],
	"buffers":[
		{
			"byteLength":87876,
			"uri":"mikki-0db250cce4084e77f9a8fb4f8ae0dfbc.bin"
		}
	]
}
