{
	"asset":{
		"generator":"Khronos glTF Blender I/O v4.0.44",
		"version":"2.0"
	},
	"scene":0,
	"scenes":[
		{
			"name":"Scene",
			"nodes":[
				0,
				1,
				2
			]
		}
	],
	"nodes":[
		{
			"mesh":0,
			"name":"Cube-col",
			"scale":[
				0.35677236318588257,
				0.35677236318588257,
				0.22677244246006012
			],
			"translation":[
				4.7663774490356445,
				0,
				-0.14705920219421387
			]
		},
		{
			"mesh":1,
			"name":"Cube.001-col",
			"scale":[
				0.3936607837677002,
				0.3936607837677002,
				0.26366111636161804
			],
			"translation":[
				-3.9964561462402344,
				0,
				0
			]
		},
		{
			"mesh":2,
			"name":"Plane-col",
			"rotation":[
				0.7071068286895752,
				0,
				0,
				0.7071068286895752
			],
			"scale":[
				4.665987491607666,
				0.25026166439056396,
				0.25026166439056396
			],
			"translation":[
				0.021199703216552734,
				-0.07447153329849243,
				-0.0029529519379138947
			]
		}
	],
	"materials":[
		{
			"doubleSided":true,
			"name":"Material.002",
			"pbrMetallicRoughness":{
				"baseColorFactor":[
					0.17904935777187347,
					0.17904935777187347,
					0.17904935777187347,
					1
				],
				"roughnessFactor":0.5
			}
		},
		{
			"doubleSided":true,
			"name":"Material.001",
			"pbrMetallicRoughness":{
				"baseColorFactor":[
					0.8002911806106567,
					0,
					0.015038073994219303,
					1
				],
				"metallicFactor":0,
				"roughnessFactor":0
			}
		},
		{
			"doubleSided":true,
			"name":"Material.003",
			"pbrMetallicRoughness":{
				"baseColorFactor":[
					0.3698408603668213,
					0.3698408603668213,
					0.3698408603668213,
					1
				],
				"roughnessFactor":0.5
			}
		}
	],
	"meshes":[
		{
			"name":"Cube.001",
			"primitives":[
				{
					"attributes":{
						"POSITION":0,
						"NORMAL":1,
						"TEXCOORD_0":2,
						"TANGENT":3
					},
					"indices":4,
					"material":0
				}
			]
		},
		{
			"name":"Cube.002",
			"primitives":[
				{
					"attributes":{
						"POSITION":5,
						"NORMAL":6,
						"TEXCOORD_0":7,
						"TANGENT":8
					},
					"indices":9,
					"material":1
				}
			]
		},
		{
			"name":"Plane",
			"primitives":[
				{
					"attributes":{
						"POSITION":10,
						"NORMAL":11,
						"TEXCOORD_0":12
					},
					"indices":13,
					"material":2
				}
			]
		}
	],
	"accessors":[
		{
			"bufferView":0,
			"componentType":5126,
			"count":158,
			"max":[
				1,
				8.536091804504395,
				1
			],
			"min":[
				-23.526702880859375,
				-1,
				-0.22043174505233765
			],
			"type":"VEC3"
		},
		{
			"bufferView":1,
			"componentType":5126,
			"count":158,
			"type":"VEC3"
		},
		{
			"bufferView":2,
			"componentType":5126,
			"count":158,
			"type":"VEC2"
		},
		{
			"bufferView":3,
			"componentType":5126,
			"count":158,
			"type":"VEC4"
		},
		{
			"bufferView":4,
			"componentType":5123,
			"count":300,
			"type":"SCALAR"
		},
		{
			"bufferView":5,
			"componentType":5126,
			"count":226,
			"max":[
				1,
				7.6437458992004395,
				1
			],
			"min":[
				-5.498930931091309,
				-1.3844428062438965,
				-1
			],
			"type":"VEC3"
		},
		{
			"bufferView":6,
			"componentType":5126,
			"count":226,
			"type":"VEC3"
		},
		{
			"bufferView":7,
			"componentType":5126,
			"count":226,
			"type":"VEC2"
		},
		{
			"bufferView":8,
			"componentType":5126,
			"count":226,
			"type":"VEC4"
		},
		{
			"bufferView":9,
			"componentType":5123,
			"count":420,
			"type":"SCALAR"
		},
		{
			"bufferView":10,
			"componentType":5126,
			"count":1104,
			"max":[
				1,
				0,
				1
			],
			"min":[
				-1,
				-0.3627167344093323,
				-1.173759937286377
			],
			"type":"VEC3"
		},
		{
			"bufferView":11,
			"componentType":5126,
			"count":1104,
			"type":"VEC3"
		},
		{
			"bufferView":12,
			"componentType":5126,
			"count":1104,
			"type":"VEC2"
		},
		{
			"bufferView":13,
			"componentType":5123,
			"count":2184,
			"type":"SCALAR"
		}
	],
	"bufferViews":[
		{
			"buffer":0,
			"byteLength":1896,
			"byteOffset":0,
			"target":34962
		},
		{
			"buffer":0,
			"byteLength":1896,
			"byteOffset":1896,
			"target":34962
		},
		{
			"buffer":0,
			"byteLength":1264,
			"byteOffset":3792,
			"target":34962
		},
		{
			"buffer":0,
			"byteLength":2528,
			"byteOffset":5056,
			"target":34962
		},
		{
			"buffer":0,
			"byteLength":600,
			"byteOffset":7584,
			"target":34963
		},
		{
			"buffer":0,
			"byteLength":2712,
			"byteOffset":8184,
			"target":34962
		},
		{
			"buffer":0,
			"byteLength":2712,
			"byteOffset":10896,
			"target":34962
		},
		{
			"buffer":0,
			"byteLength":1808,
			"byteOffset":13608,
			"target":34962
		},
		{
			"buffer":0,
			"byteLength":3616,
			"byteOffset":15416,
			"target":34962
		},
		{
			"buffer":0,
			"byteLength":840,
			"byteOffset":19032,
			"target":34963
		},
		{
			"buffer":0,
			"byteLength":13248,
			"byteOffset":19872,
			"target":34962
		},
		{
			"buffer":0,
			"byteLength":13248,
			"byteOffset":33120,
			"target":34962
		},
		{
			"buffer":0,
			"byteLength":8832,
			"byteOffset":46368,
			"target":34962
		},
		{
			"buffer":0,
			"byteLength":4368,
			"byteOffset":55200,
			"target":34963
		}
	],
	"buffers":[
		{
			"byteLength":59568,
			"uri":"saw-5fb2b080e2cfec5f43e78d17db329fcf.bin"
		}
	]
}
