{
	"asset":{
		"generator":"Khronos glTF Blender I/O v4.0.44",
		"version":"2.0"
	},
	"extensionsUsed":[
		"KHR_materials_clearcoat"
	],
	"scene":0,
	"scenes":[
		{
			"name":"Scene",
			"nodes":[
				0,
				1,
				2,
				3,
				4,
				5,
				6,
				7,
				8,
				9,
				10,
				11,
				12,
				13,
				14
			]
		}
	],
	"nodes":[
		{
			"mesh":0,
			"name":"Cylinder-col",
			"translation":[
				0,
				1.0560846328735352,
				0
			]
		},
		{
			"mesh":1,
			"name":"Cylinder.001.col",
			"scale":[
				0.10000002384185791,
				0.37458378076553345,
				0.10000002384185791
			],
			"translation":[
				0,
				0.694832980632782,
				-0.88532954454422
			]
		},
		{
			"mesh":2,
			"name":"Cylinder.002.col",
			"scale":[
				0.10000002384185791,
				0.37458378076553345,
				0.10000002384185791
			],
			"translation":[
				0,
				0.6752026081085205,
				0.8800298571586609
			]
		},
		{
			"mesh":3,
			"name":"Cylinder.003-col",
			"scale":[
				0.10000002384185791,
				0.37458378076553345,
				0.10000002384185791
			],
			"translation":[
				-0.8838369846343994,
				0.6915692687034607,
				0
			]
		},
		{
			"mesh":4,
			"name":"Cylinder.004-col",
			"scale":[
				0.10000002384185791,
				0.37458378076553345,
				0.10000002384185791
			],
			"translation":[
				0.8624095916748047,
				0.719977617263794,
				0
			]
		},
		{
			"mesh":5,
			"name":"Cylinder.005-col",
			"translation":[
				0,
				4.818423271179199,
				0
			]
		},
		{
			"mesh":6,
			"name":"Cone.col",
			"rotation":[
				0,
				0,
				1,
				4.371138828673793e-08
			],
			"scale":[
				1,
				0.3799999952316284,
				1
			],
			"translation":[
				0,
				3.455552101135254,
				0
			]
		},
		{
			"mesh":7,
			"name":"Cylinder.006-col",
			"scale":[
				0.08722293376922607,
				0.08722293376922607,
				0.08722293376922607
			],
			"translation":[
				0.6019943356513977,
				0.41197216510772705,
				0.5636903643608093
			]
		},
		{
			"mesh":8,
			"name":"Cone.001",
			"rotation":[
				0,
				1,
				0,
				0
			],
			"scale":[
				-0.09092990309000015,
				-0.0490700900554657,
				-0.09092990309000015
			],
			"translation":[
				0.6024023294448853,
				1.7373563051223755,
				0.5692978501319885
			]
		},
		{
			"mesh":9,
			"name":"Cylinder.007",
			"rotation":[
				0.5268640518188477,
				0.2461162656545639,
				0.3586178719997406,
				0.7302289605140686
			],
			"scale":[
				0.03812825307250023,
				0.03812825679779053,
				0.03812825679779053
			],
			"translation":[
				0.41313451528549194,
				0.3750501573085785,
				0.8793252110481262
			]
		},
		{
			"mesh":10,
			"name":"Cylinder.008",
			"scale":[
				-0.15362656116485596,
				-0.15362656116485596,
				-0.15362656116485596
			],
			"translation":[
				0,
				4.263765811920166,
				0
			]
		},
		{
			"mesh":11,
			"name":"Cube",
			"scale":[
				-0.11307668685913086,
				-0.11307668685913086,
				-0.11307668685913086
			],
			"translation":[
				0.11991855502128601,
				4.2341179847717285,
				0.6244287490844727
			]
		},
		{
			"mesh":12,
			"name":"Cylinder.009",
			"rotation":[
				0.7051602005958557,
				0,
				0,
				0.7090480923652649
			],
			"scale":[
				0.03799254447221756,
				0.03799254447221756,
				0.03799254447221756
			],
			"translation":[
				0.06656238436698914,
				4.162612438201904,
				0.11505407094955444
			]
		},
		{
			"mesh":13,
			"name":"Cylinder.010",
			"rotation":[
				0.027964703738689423,
				-0.02490992844104767,
				-0.7030181288719177,
				0.710185170173645
			],
			"scale":[
				0.04623061418533325,
				0.04623061418533325,
				0.046230610460042953
			],
			"translation":[
				0.26614680886268616,
				4.178030967712402,
				0.6214417815208435
			]
		},
		{
			"mesh":14,
			"name":"Cylinder.011",
			"rotation":[
				0,
				0,
				0.3826834261417389,
				0.9238795638084412
			],
			"scale":[
				0.04351526498794556,
				0.04351526498794556,
				0.04351526498794556
			],
			"translation":[
				-0.07084120810031891,
				4.995112419128418,
				0
			]
		}
	],
	"animations":[
		{
			"channels":[
				{
					"sampler":0,
					"target":{
						"node":8,
						"path":"translation"
					}
				}
			],
			"name":"Cone.001Action",
			"samplers":[
				{
					"input":58,
					"interpolation":"LINEAR",
					"output":59
				}
			]
		}
	],
	"materials":[
		{
			"doubleSided":true,
			"extensions":{
				"KHR_materials_clearcoat":{
					"clearcoatFactor":0.24352328479290009,
					"clearcoatRoughnessFactor":0.4859585165977478
				}
			},
			"name":"Material.004",
			"pbrMetallicRoughness":{
				"baseColorFactor":[
					0.30157604813575745,
					0.30157604813575745,
					0.30157604813575745,
					1
				],
				"metallicFactor":0.3419688940048218,
				"roughnessFactor":0.5
			}
		},
		{
			"doubleSided":true,
			"extensions":{
				"KHR_materials_clearcoat":{
					"clearcoatFactor":0.24352328479290009,
					"clearcoatRoughnessFactor":0.4859585165977478
				}
			},
			"name":"Material.004",
			"pbrMetallicRoughness":{
				"baseColorFactor":[
					0.30157604813575745,
					0.30157604813575745,
					0.30157604813575745,
					1
				],
				"metallicFactor":0.3419688940048218,
				"roughnessFactor":0.5
			}
		},
		{
			"doubleSided":true,
			"name":"Material.002",
			"pbrMetallicRoughness":{
				"baseColorFactor":[
					0.800000011920929,
					0.800000011920929,
					0.800000011920929,
					1
				],
				"roughnessFactor":0.5
			}
		},
		{
			"doubleSided":true,
			"name":"Material",
			"pbrMetallicRoughness":{
				"baseColorFactor":[
					0.5225029587745667,
					0,
					0.0026374394074082375,
					1
				]
			}
		},
		{
			"doubleSided":true,
			"name":"Material.003",
			"pbrMetallicRoughness":{
				"baseColorFactor":[
					0.2192487120628357,
					0.23950514197349548,
					0.32840341329574585,
					1
				],
				"metallicFactor":0,
				"roughnessFactor":0.5
			}
		},
		{
			"doubleSided":true,
			"name":"Material.001",
			"pbrMetallicRoughness":{
				"baseColorFactor":[
					0.4709628224372864,
					0.117327481508255,
					0,
					1
				],
				"metallicFactor":0,
				"roughnessFactor":0.5
			}
		},
		{
			"doubleSided":true,
			"name":"Material.001",
			"pbrMetallicRoughness":{
				"baseColorFactor":[
					0.4709628224372864,
					0.117327481508255,
					0,
					1
				],
				"metallicFactor":0,
				"roughnessFactor":0.5
			}
		}
	],
	"meshes":[
		{
			"name":"Cylinder",
			"primitives":[
				{
					"attributes":{
						"POSITION":0,
						"NORMAL":1,
						"TEXCOORD_0":2
					},
					"indices":3,
					"material":0
				}
			]
		},
		{
			"name":"Cylinder.001",
			"primitives":[
				{
					"attributes":{
						"POSITION":4,
						"NORMAL":5,
						"TEXCOORD_0":6
					},
					"indices":7,
					"material":1
				}
			]
		},
		{
			"name":"Cylinder.002",
			"primitives":[
				{
					"attributes":{
						"POSITION":8,
						"NORMAL":9,
						"TEXCOORD_0":10
					},
					"indices":11,
					"material":1
				}
			]
		},
		{
			"name":"Cylinder.003",
			"primitives":[
				{
					"attributes":{
						"POSITION":12,
						"NORMAL":13,
						"TEXCOORD_0":14
					},
					"indices":7,
					"material":1
				}
			]
		},
		{
			"name":"Cylinder.004",
			"primitives":[
				{
					"attributes":{
						"POSITION":15,
						"NORMAL":16,
						"TEXCOORD_0":17
					},
					"indices":7,
					"material":1
				}
			]
		},
		{
			"name":"Cylinder.005",
			"primitives":[
				{
					"attributes":{
						"POSITION":18,
						"NORMAL":19,
						"TEXCOORD_0":20
					},
					"indices":3,
					"material":0
				}
			]
		},
		{
			"name":"Cone",
			"primitives":[
				{
					"attributes":{
						"POSITION":21,
						"NORMAL":22,
						"TEXCOORD_0":23
					},
					"indices":24,
					"material":0
				}
			]
		},
		{
			"name":"Cylinder.006",
			"primitives":[
				{
					"attributes":{
						"POSITION":25,
						"NORMAL":26,
						"TEXCOORD_0":27
					},
					"indices":28,
					"material":2
				}
			]
		},
		{
			"name":"Cone.001",
			"primitives":[
				{
					"attributes":{
						"POSITION":29,
						"NORMAL":30,
						"TEXCOORD_0":31
					},
					"indices":32,
					"material":3
				}
			]
		},
		{
			"name":"Cylinder.007",
			"primitives":[
				{
					"attributes":{
						"POSITION":33,
						"NORMAL":34,
						"TEXCOORD_0":35
					},
					"indices":36,
					"material":4
				}
			]
		},
		{
			"name":"Cylinder.008",
			"primitives":[
				{
					"attributes":{
						"POSITION":37,
						"NORMAL":38,
						"TEXCOORD_0":39
					},
					"indices":40,
					"material":2
				}
			]
		},
		{
			"name":"Cube.003",
			"primitives":[
				{
					"attributes":{
						"POSITION":41,
						"NORMAL":42,
						"TEXCOORD_0":43,
						"TANGENT":44
					},
					"indices":45,
					"material":5
				}
			]
		},
		{
			"name":"Cylinder.009",
			"primitives":[
				{
					"attributes":{
						"POSITION":46,
						"NORMAL":47,
						"TEXCOORD_0":48
					},
					"indices":49,
					"material":4
				}
			]
		},
		{
			"name":"Cylinder.010",
			"primitives":[
				{
					"attributes":{
						"POSITION":50,
						"NORMAL":51,
						"TEXCOORD_0":52
					},
					"indices":53,
					"material":4
				}
			]
		},
		{
			"name":"Cylinder.012",
			"primitives":[
				{
					"attributes":{
						"POSITION":54,
						"NORMAL":55,
						"TEXCOORD_0":56
					},
					"indices":57,
					"material":6
				}
			]
		}
	],
	"accessors":[
		{
			"bufferView":0,
			"componentType":5126,
			"count":192,
			"max":[
				1,
				-0.7150685787200928,
				1
			],
			"min":[
				-1,
				-1,
				-1
			],
			"type":"VEC3"
		},
		{
			"bufferView":1,
			"componentType":5126,
			"count":192,
			"type":"VEC3"
		},
		{
			"bufferView":2,
			"componentType":5126,
			"count":192,
			"type":"VEC2"
		},
		{
			"bufferView":3,
			"componentType":5123,
			"count":372,
			"type":"SCALAR"
		},
		{
			"bufferView":4,
			"componentType":5126,
			"count":96,
			"max":[
				1.01183021068573,
				9.00493049621582,
				1.01183021068573
			],
			"min":[
				-1.01183021068573,
				-1,
				-1.01183021068573
			],
			"type":"VEC3"
		},
		{
			"bufferView":5,
			"componentType":5126,
			"count":96,
			"type":"VEC3"
		},
		{
			"bufferView":6,
			"componentType":5126,
			"count":96,
			"type":"VEC2"
		},
		{
			"bufferView":7,
			"componentType":5123,
			"count":180,
			"type":"SCALAR"
		},
		{
			"bufferView":8,
			"componentType":5126,
			"count":96,
			"max":[
				1.01183021068573,
				8.717828750610352,
				1.01183021068573
			],
			"min":[
				-1.01183021068573,
				-1,
				-1.01183021068573
			],
			"type":"VEC3"
		},
		{
			"bufferView":9,
			"componentType":5126,
			"count":96,
			"type":"VEC3"
		},
		{
			"bufferView":10,
			"componentType":5126,
			"count":96,
			"type":"VEC2"
		},
		{
			"bufferView":11,
			"componentType":5123,
			"count":180,
			"type":"SCALAR"
		},
		{
			"bufferView":12,
			"componentType":5126,
			"count":96,
			"max":[
				1.01183021068573,
				8.698392868041992,
				1.01183021068573
			],
			"min":[
				-1.01183021068573,
				-1,
				-1.01183021068573
			],
			"type":"VEC3"
		},
		{
			"bufferView":13,
			"componentType":5126,
			"count":96,
			"type":"VEC3"
		},
		{
			"bufferView":14,
			"componentType":5126,
			"count":96,
			"type":"VEC2"
		},
		{
			"bufferView":15,
			"componentType":5126,
			"count":96,
			"max":[
				1.01183021068573,
				8.495370864868164,
				1.01183021068573
			],
			"min":[
				-1.01183021068573,
				-1,
				-1.01183021068573
			],
			"type":"VEC3"
		},
		{
			"bufferView":16,
			"componentType":5126,
			"count":96,
			"type":"VEC3"
		},
		{
			"bufferView":17,
			"componentType":5126,
			"count":96,
			"type":"VEC2"
		},
		{
			"bufferView":18,
			"componentType":5126,
			"count":192,
			"max":[
				1,
				-0.7150685787200928,
				1
			],
			"min":[
				-1,
				-1,
				-1
			],
			"type":"VEC3"
		},
		{
			"bufferView":19,
			"componentType":5126,
			"count":192,
			"type":"VEC3"
		},
		{
			"bufferView":20,
			"componentType":5126,
			"count":192,
			"type":"VEC2"
		},
		{
			"bufferView":21,
			"componentType":5126,
			"count":128,
			"max":[
				1,
				1,
				1
			],
			"min":[
				-1,
				-1,
				-1
			],
			"type":"VEC3"
		},
		{
			"bufferView":22,
			"componentType":5126,
			"count":128,
			"type":"VEC3"
		},
		{
			"bufferView":23,
			"componentType":5126,
			"count":128,
			"type":"VEC2"
		},
		{
			"bufferView":24,
			"componentType":5123,
			"count":186,
			"type":"SCALAR"
		},
		{
			"bufferView":25,
			"componentType":5126,
			"count":344,
			"max":[
				1.6939470767974854,
				14.989069938659668,
				1.6907854080200195
			],
			"min":[
				-1.6907844543457031,
				-1,
				-1.693684458732605
			],
			"type":"VEC3"
		},
		{
			"bufferView":26,
			"componentType":5126,
			"count":344,
			"type":"VEC3"
		},
		{
			"bufferView":27,
			"componentType":5126,
			"count":344,
			"type":"VEC2"
		},
		{
			"bufferView":28,
			"componentType":5123,
			"count":432,
			"type":"SCALAR"
		},
		{
			"bufferView":29,
			"componentType":5126,
			"count":56,
			"max":[
				1.0311554670333862,
				1.0355420112609863,
				1.0182116031646729
			],
			"min":[
				-1.0311554670333862,
				-1.0011107921600342,
				-1.0182116031646729
			],
			"type":"VEC3"
		},
		{
			"bufferView":30,
			"componentType":5126,
			"count":56,
			"type":"VEC3"
		},
		{
			"bufferView":31,
			"componentType":5126,
			"count":56,
			"type":"VEC2"
		},
		{
			"bufferView":32,
			"componentType":5123,
			"count":78,
			"type":"SCALAR"
		},
		{
			"bufferView":33,
			"componentType":5126,
			"count":833,
			"max":[
				73.64608764648438,
				26.012956619262695,
				2.5336296558380127
			],
			"min":[
				-7.021574974060059,
				-10.596559524536133,
				-68.55841827392578
			],
			"type":"VEC3"
		},
		{
			"bufferView":34,
			"componentType":5126,
			"count":833,
			"type":"VEC3"
		},
		{
			"bufferView":35,
			"componentType":5126,
			"count":833,
			"type":"VEC2"
		},
		{
			"bufferView":36,
			"componentType":5123,
			"count":1182,
			"type":"SCALAR"
		},
		{
			"bufferView":37,
			"componentType":5126,
			"count":572,
			"max":[
				3.7662065029144287,
				1,
				2.6619927883148193
			],
			"min":[
				-1,
				-7.894746780395508,
				-2.7194266319274902
			],
			"type":"VEC3"
		},
		{
			"bufferView":38,
			"componentType":5126,
			"count":572,
			"type":"VEC3"
		},
		{
			"bufferView":39,
			"componentType":5126,
			"count":572,
			"type":"VEC2"
		},
		{
			"bufferView":40,
			"componentType":5123,
			"count":1374,
			"type":"SCALAR"
		},
		{
			"bufferView":41,
			"componentType":5126,
			"count":24,
			"max":[
				1,
				1,
				1
			],
			"min":[
				-1,
				-1,
				-1
			],
			"type":"VEC3"
		},
		{
			"bufferView":42,
			"componentType":5126,
			"count":24,
			"type":"VEC3"
		},
		{
			"bufferView":43,
			"componentType":5126,
			"count":24,
			"type":"VEC2"
		},
		{
			"bufferView":44,
			"componentType":5126,
			"count":24,
			"type":"VEC4"
		},
		{
			"bufferView":45,
			"componentType":5123,
			"count":36,
			"type":"SCALAR"
		},
		{
			"bufferView":46,
			"componentType":5126,
			"count":198,
			"max":[
				3.9207820892333984,
				12.265019416809082,
				1.028088092803955
			],
			"min":[
				-1,
				-1,
				-0.9807852506637573
			],
			"type":"VEC3"
		},
		{
			"bufferView":47,
			"componentType":5126,
			"count":198,
			"type":"VEC3"
		},
		{
			"bufferView":48,
			"componentType":5126,
			"count":198,
			"type":"VEC2"
		},
		{
			"bufferView":49,
			"componentType":5123,
			"count":504,
			"type":"SCALAR"
		},
		{
			"bufferView":50,
			"componentType":5126,
			"count":412,
			"max":[
				12.71390438079834,
				13.266958236694336,
				1.7874497175216675
			],
			"min":[
				-1.021043300628662,
				-0.9999751448631287,
				-4.9676079750061035
			],
			"type":"VEC3"
		},
		{
			"bufferView":51,
			"componentType":5126,
			"count":412,
			"type":"VEC3"
		},
		{
			"bufferView":52,
			"componentType":5126,
			"count":412,
			"type":"VEC2"
		},
		{
			"bufferView":53,
			"componentType":5123,
			"count":492,
			"type":"SCALAR"
		},
		{
			"bufferView":54,
			"componentType":5126,
			"count":496,
			"max":[
				1.1978633403778076,
				11.07232666015625,
				1.261478304862976
			],
			"min":[
				-1.2576038837432861,
				-1,
				-1.2614785432815552
			],
			"type":"VEC3"
		},
		{
			"bufferView":55,
			"componentType":5126,
			"count":496,
			"type":"VEC3"
		},
		{
			"bufferView":56,
			"componentType":5126,
			"count":496,
			"type":"VEC2"
		},
		{
			"bufferView":57,
			"componentType":5123,
			"count":720,
			"type":"SCALAR"
		},
		{
			"bufferView":58,
			"componentType":5126,
			"count":31,
			"max":[
				1
			],
			"min":[
				0
			],
			"type":"SCALAR"
		},
		{
			"bufferView":59,
			"componentType":5126,
			"count":31,
			"type":"VEC3"
		}
	],
	"bufferViews":[
		{
			"buffer":0,
			"byteLength":2304,
			"byteOffset":0,
			"target":34962
		},
		{
			"buffer":0,
			"byteLength":2304,
			"byteOffset":2304,
			"target":34962
		},
		{
			"buffer":0,
			"byteLength":1536,
			"byteOffset":4608,
			"target":34962
		},
		{
			"buffer":0,
			"byteLength":744,
			"byteOffset":6144,
			"target":34963
		},
		{
			"buffer":0,
			"byteLength":1152,
			"byteOffset":6888,
			"target":34962
		},
		{
			"buffer":0,
			"byteLength":1152,
			"byteOffset":8040,
			"target":34962
		},
		{
			"buffer":0,
			"byteLength":768,
			"byteOffset":9192,
			"target":34962
		},
		{
			"buffer":0,
			"byteLength":360,
			"byteOffset":9960,
			"target":34963
		},
		{
			"buffer":0,
			"byteLength":1152,
			"byteOffset":10320,
			"target":34962
		},
		{
			"buffer":0,
			"byteLength":1152,
			"byteOffset":11472,
			"target":34962
		},
		{
			"buffer":0,
			"byteLength":768,
			"byteOffset":12624,
			"target":34962
		},
		{
			"buffer":0,
			"byteLength":360,
			"byteOffset":13392,
			"target":34963
		},
		{
			"buffer":0,
			"byteLength":1152,
			"byteOffset":13752,
			"target":34962
		},
		{
			"buffer":0,
			"byteLength":1152,
			"byteOffset":14904,
			"target":34962
		},
		{
			"buffer":0,
			"byteLength":768,
			"byteOffset":16056,
			"target":34962
		},
		{
			"buffer":0,
			"byteLength":1152,
			"byteOffset":16824,
			"target":34962
		},
		{
			"buffer":0,
			"byteLength":1152,
			"byteOffset":17976,
			"target":34962
		},
		{
			"buffer":0,
			"byteLength":768,
			"byteOffset":19128,
			"target":34962
		},
		{
			"buffer":0,
			"byteLength":2304,
			"byteOffset":19896,
			"target":34962
		},
		{
			"buffer":0,
			"byteLength":2304,
			"byteOffset":22200,
			"target":34962
		},
		{
			"buffer":0,
			"byteLength":1536,
			"byteOffset":24504,
			"target":34962
		},
		{
			"buffer":0,
			"byteLength":1536,
			"byteOffset":26040,
			"target":34962
		},
		{
			"buffer":0,
			"byteLength":1536,
			"byteOffset":27576,
			"target":34962
		},
		{
			"buffer":0,
			"byteLength":1024,
			"byteOffset":29112,
			"target":34962
		},
		{
			"buffer":0,
			"byteLength":372,
			"byteOffset":30136,
			"target":34963
		},
		{
			"buffer":0,
			"byteLength":4128,
			"byteOffset":30508,
			"target":34962
		},
		{
			"buffer":0,
			"byteLength":4128,
			"byteOffset":34636,
			"target":34962
		},
		{
			"buffer":0,
			"byteLength":2752,
			"byteOffset":38764,
			"target":34962
		},
		{
			"buffer":0,
			"byteLength":864,
			"byteOffset":41516,
			"target":34963
		},
		{
			"buffer":0,
			"byteLength":672,
			"byteOffset":42380,
			"target":34962
		},
		{
			"buffer":0,
			"byteLength":672,
			"byteOffset":43052,
			"target":34962
		},
		{
			"buffer":0,
			"byteLength":448,
			"byteOffset":43724,
			"target":34962
		},
		{
			"buffer":0,
			"byteLength":156,
			"byteOffset":44172,
			"target":34963
		},
		{
			"buffer":0,
			"byteLength":9996,
			"byteOffset":44328,
			"target":34962
		},
		{
			"buffer":0,
			"byteLength":9996,
			"byteOffset":54324,
			"target":34962
		},
		{
			"buffer":0,
			"byteLength":6664,
			"byteOffset":64320,
			"target":34962
		},
		{
			"buffer":0,
			"byteLength":2364,
			"byteOffset":70984,
			"target":34963
		},
		{
			"buffer":0,
			"byteLength":6864,
			"byteOffset":73348,
			"target":34962
		},
		{
			"buffer":0,
			"byteLength":6864,
			"byteOffset":80212,
			"target":34962
		},
		{
			"buffer":0,
			"byteLength":4576,
			"byteOffset":87076,
			"target":34962
		},
		{
			"buffer":0,
			"byteLength":2748,
			"byteOffset":91652,
			"target":34963
		},
		{
			"buffer":0,
			"byteLength":288,
			"byteOffset":94400,
			"target":34962
		},
		{
			"buffer":0,
			"byteLength":288,
			"byteOffset":94688,
			"target":34962
		},
		{
			"buffer":0,
			"byteLength":192,
			"byteOffset":94976,
			"target":34962
		},
		{
			"buffer":0,
			"byteLength":384,
			"byteOffset":95168,
			"target":34962
		},
		{
			"buffer":0,
			"byteLength":72,
			"byteOffset":95552,
			"target":34963
		},
		{
			"buffer":0,
			"byteLength":2376,
			"byteOffset":95624,
			"target":34962
		},
		{
			"buffer":0,
			"byteLength":2376,
			"byteOffset":98000,
			"target":34962
		},
		{
			"buffer":0,
			"byteLength":1584,
			"byteOffset":100376,
			"target":34962
		},
		{
			"buffer":0,
			"byteLength":1008,
			"byteOffset":101960,
			"target":34963
		},
		{
			"buffer":0,
			"byteLength":4944,
			"byteOffset":102968,
			"target":34962
		},
		{
			"buffer":0,
			"byteLength":4944,
			"byteOffset":107912,
			"target":34962
		},
		{
			"buffer":0,
			"byteLength":3296,
			"byteOffset":112856,
			"target":34962
		},
		{
			"buffer":0,
			"byteLength":984,
			"byteOffset":116152,
			"target":34963
		},
		{
			"buffer":0,
			"byteLength":5952,
			"byteOffset":117136,
			"target":34962
		},
		{
			"buffer":0,
			"byteLength":5952,
			"byteOffset":123088,
			"target":34962
		},
		{
			"buffer":0,
			"byteLength":3968,
			"byteOffset":129040,
			"target":34962
		},
		{
			"buffer":0,
			"byteLength":1440,
			"byteOffset":133008,
			"target":34963
		},
		{
			"buffer":0,
			"byteLength":124,
			"byteOffset":134448
		},
		{
			"buffer":0,
			"byteLength":372,
			"byteOffset":134572
		}
	],
	"buffers":[
		{
			"byteLength":134944,
			"uri":"teleportti-c8232985d77cf02187f233925c582807.bin"
		}
	]
}
